<?xml version="1.0" encoding="UTF-8"?><svg id="a" xmlns="http://www.w3.org/2000/svg" width="698" height="249" viewBox="0 0 698 249"><path d="M165.37,148.67c1.96,0,3.93-.51,5.67-1.52,5.02-2.53,8.29-8.34,8.29-14.66,0-5.81-2.62-9.86-4.15-11.63-1.75-2.02-5.02-4.55-9.82-4.55h-81.14v90.59h67.42l-4.39-9.95-.66-1.52c-4.16-7.89-11.12-13.5-19.3-14.85-1.25-.21-2.53-.32-3.83-.32h-12.93v-31.4l54.83-.2Z" fill="#030405"/><path d="M158.29,58.56l-74.07-.21v26.37h81.14c11.35,0,21.6,5.31,29.02,13.9,7.42,8.85,12,20.73,12,33.87,0,19.21-9.82,35.89-24,43.48-3.71,2.02-7.64,3.29-11.78,3.79l10.26,23.66c11.39-3.64,21.59-10,29.84-18.38,1.49-1.49,2.97-2.97,4.24-4.46,11.04-12.95,17.61-29.71,17.61-47.96,0-40.96-33.32-74.07-74.28-74.07Z" fill="#e72d3c"/><path d="M253.14,86.51h23.41c15.33,0,22.85,8.15,22.85,23.1v47.27c0,14.96-7.52,23.1-22.85,23.1h-23.41v-93.48ZM276.27,166.64c4.88,0,7.8-2.4,7.8-9.08v-48.61c0-6.68-2.93-9.08-7.8-9.08h-7.8v66.77h7.8Z"/><path d="M309.7,86.51h22.71c15.88,0,22.71,7.08,22.71,21.5v5.74c0,9.62-3.21,15.76-10.03,18.43v.27c7.66,2.27,10.17,9.21,10.17,19.76v16.43c0,4.54.14,7.88,1.67,11.35h-15.6c-.84-2.4-1.39-3.87-1.39-11.48v-17.09c0-8.68-2.65-11.48-9.61-11.48h-5.29v40.06h-15.33v-93.48ZM330.6,126.58c5.71,0,9.2-2.4,9.2-9.88v-7.21c0-6.68-2.37-9.62-7.8-9.62h-6.97v26.71h5.57Z"/><path d="M361.95,86.51h14.77l6.83,71.85h.28l7.24-71.85h16.72l7.25,71.85h.28l6.83-71.85h13.24l-9.89,93.48h-19.09l-6.97-63.03h-.28l-6.97,63.03h-20.34l-9.89-93.48Z" fill="#e72d3c"/><path d="M442.06,157.82v-49.14c0-14.96,8.22-23.5,23.27-23.5s23.27,8.55,23.27,23.5v49.14c0,14.96-8.22,23.5-23.27,23.5s-23.27-8.55-23.27-23.5ZM473.27,158.76v-51.01c0-6.68-3.06-9.21-7.94-9.21s-7.94,2.54-7.94,9.21v51.01c0,6.68,3.06,9.21,7.94,9.21s7.94-2.54,7.94-9.21Z" fill="#e72d3c"/><path d="M498.9,86.51h22.71c15.88,0,22.71,7.08,22.71,21.5v5.74c0,9.62-3.21,15.76-10.03,18.43v.27c7.66,2.27,10.17,9.21,10.17,19.76v16.43c0,4.54.14,7.88,1.67,11.35h-15.6c-.84-2.4-1.39-3.87-1.39-11.48v-17.09c0-8.68-2.65-11.48-9.61-11.48h-5.29v40.06h-15.33v-93.48ZM519.8,126.58c5.71,0,9.2-2.4,9.2-9.88v-7.21c0-6.68-2.37-9.62-7.8-9.62h-6.97v26.71h5.57Z" fill="#e72d3c"/><path d="M555.05,86.51h15.33v39.4l19.51-39.4h15.33l-18.25,34.32,18.53,59.16h-16.02l-12.96-41.67-6.13,11.89v29.78h-15.33v-93.48Z" fill="#e72d3c"/></svg>